# xmcd
#
# Track frame offsets: 
#        183
#        14333
#        30228
#        41410
#        57985
#        70615
#        84615
#        105908
#        121350
#        135940
#        151685
#
# Disc length: 2239 seconds
#
# Revision: 0
# Processed by: cddbd v1.5.2PL0 Copyright (c) Steve Scherf et al.
# Submitted via: ExactAudioCopy v0.95a3
#
DISCID=7508bd0b
DTITLE=Jeff Turner - Mostly Alone
DYEAR=1985
DGENRE=Country
TTITLE0=Mostly Alone
TTITLE1=The Last Cowboy Song
TTITLE2=I Shulda Been Born In Nashville
TTITLE3=The Love I`M Feeling
TTITLE4=I Don`t Want to See Anybody
TTITLE5=Country Boy
TTITLE6=The Streets of London
TTITLE7=Why did you take my guitar
TTITLE8=Shooting at shadows
TTITLE9=Both sides Now
TTITLE10=The flowers in my father`s garden
EXTD=
EXTT0=
EXTT1=
EXTT2=
EXTT3=
EXTT4=
EXTT5=
EXTT6=
EXTT7=
EXTT8=
EXTT9=
EXTT10=
PLAYORDER=
